<?xml version="1.0" standalone="no"?><svg xmlns="http://www.w3.org/2000/svg" viewBox="0 0 1440 320">
                        <path fill="#FFFFFF" fill-opacity="1"
                            d="M0,32L48,69.3C96,107,192,181,288,202.7C384,224,480,192,576,202.7C672,213,768,267,864,272C960,277,1056,235,1152,208C1248,181,1344,171,1392,165.3L1440,160L1440,320L1392,320C1344,320,1248,320,1152,320C1056,320,960,320,864,320C768,320,672,320,576,320C480,320,384,320,288,320C192,320,96,320,48,320L0,320Z">
                        </path>
                    </svg>